HIERARCHY
ROOT Hips
{
	OFFSET 0.00000 0.00000 0.00000
	CHANNELS 6 Xposition Yposition Zposition Zrotation Yrotation Xrotation 
	JOINT LHipJoint
	{
		OFFSET 0 0 0
		CHANNELS 3 Zrotation Yrotation Xrotation
		JOINT LeftUpLeg
		{
			OFFSET 1.75344 -1.53157 0.77399
			CHANNELS 3 Zrotation Yrotation Xrotation
			JOINT LeftLeg
			{
				OFFSET 2.25415 -6.19323 0.00000
				CHANNELS 3 Zrotation Yrotation Xrotation
				JOINT LeftFoot
				{
					OFFSET 2.30342 -6.32861 0.00000
					CHANNELS 3 Zrotation Yrotation Xrotation
					JOINT LeftToeBase
					{
						OFFSET 0.10958 -0.30108 1.49206
						CHANNELS 3 Zrotation Yrotation Xrotation
						End Site
						{
							OFFSET 0.00000 -0.00000 0.77783
						}
					}
				}
			}
		}
	}
	JOINT RHipJoint
	{
		OFFSET 0 0 0
		CHANNELS 3 Zrotation Yrotation Xrotation
		JOINT RightUpLeg
		{
			OFFSET -1.81912 -1.53156 0.77399
			CHANNELS 3 Zrotation Yrotation Xrotation
			JOINT RightLeg
			{
				OFFSET -2.22882 -6.12365 0.00000
				CHANNELS 3 Zrotation Yrotation Xrotation
				JOINT RightFoot
				{
					OFFSET -2.21943 -6.09785 0.00000
					CHANNELS 3 Zrotation Yrotation Xrotation
					JOINT RightToeBase
					{
						OFFSET -0.18931 -0.52012 1.59379
						CHANNELS 3 Zrotation Yrotation Xrotation
						End Site
						{
							OFFSET -0.00000 -0.00000 0.84686
						}
					}
				}
			}
		}
	}
	JOINT LowerBack
	{
		OFFSET 0 0 0
		CHANNELS 3 Zrotation Yrotation Xrotation
		JOINT Spine
		{
			OFFSET -0.00200 1.66634 -0.14248
			CHANNELS 3 Zrotation Yrotation Xrotation
			JOINT Spine1
			{
				OFFSET -0.00875 1.64542 0.09514
				CHANNELS 3 Zrotation Yrotation Xrotation
				JOINT Neck
				{
					OFFSET 0 0 0
					CHANNELS 3 Zrotation Yrotation Xrotation
					JOINT Neck1
					{
						OFFSET 0.02257 1.59605 0.00839
						CHANNELS 3 Zrotation Yrotation Xrotation
						JOINT Head
						{
							OFFSET -0.10214 1.57530 -0.23335
							CHANNELS 3 Zrotation Yrotation Xrotation
							End Site
							{
								OFFSET -0.03588 1.60717 -0.08062
							}
						}
					}
				}
				JOINT LeftShoulder
				{
					OFFSET 0 0 0
					CHANNELS 3 Zrotation Yrotation Xrotation
					JOINT LeftArm
					{
						OFFSET 2.54983 1.10186 0.40078
						CHANNELS 3 Zrotation Yrotation Xrotation
						JOINT LeftForeArm
						{
							OFFSET 4.28840 -0.00000 0.00000
							CHANNELS 3 Zrotation Yrotation Xrotation
							JOINT LeftHand
							{
								OFFSET 3.06552 -0.00000 -0.00000
								CHANNELS 3 Zrotation Yrotation Xrotation
								JOINT LeftFingerBase
								{
									OFFSET 0 0 0
									CHANNELS 3 Zrotation Yrotation Xrotation
									JOINT LeftHandIndex1
									{
										OFFSET 0.75304 -0.00000 0.00000
										CHANNELS 3 Zrotation Yrotation Xrotation
										End Site
										{
											OFFSET 0.60712 -0.00000 0.00000
										}
									}
								}
								JOINT LThumb
								{
									OFFSET 0 0 0
									CHANNELS 3 Zrotation Yrotation Xrotation
									End Site
									{
										OFFSET 0.61639 -0.00000 0.61639
									}
								}
							}
						}
					}
				}
				JOINT RightShoulder
				{
					OFFSET 0 0 0
					CHANNELS 3 Zrotation Yrotation Xrotation
					JOINT RightArm
					{
						OFFSET -2.60909 1.35448 0.21802
						CHANNELS 3 Zrotation Yrotation Xrotation
						JOINT RightForeArm
						{
							OFFSET -4.52172 -0.00000 -0.00000
							CHANNELS 3 Zrotation Yrotation Xrotation
							JOINT RightHand
							{
								OFFSET -2.89140 -0.00000 0.00000
								CHANNELS 3 Zrotation Yrotation Xrotation
								JOINT RightFingerBase
								{
									OFFSET 0 0 0
									CHANNELS 3 Zrotation Yrotation Xrotation
									JOINT RightHandIndex1
									{
										OFFSET -0.68054 -0.00000 0.00000
										CHANNELS 3 Zrotation Yrotation Xrotation
										End Site
										{
											OFFSET -0.54867 -0.00000 0.00000
										}
									}
								}
								JOINT RThumb
								{
									OFFSET 0 0 0
									CHANNELS 3 Zrotation Yrotation Xrotation
									End Site
									{
										OFFSET -0.55705 -0.00000 0.55705
									}
								}
							}
						}
					}
				}
			}
		}
	}
}
MOTION
Frames: 7
Frame Time: .0083333
8.922 15.4766 22.3767 0 0 0 0 0 0 -21 0 0 0 0 0 0 0 0 0 0 0 0 0 0 21 0 0 0 0 0 0 0 0 0 0 0 0 0 0 0 0 0 0 0 0 0 0 -16 0 0 21 0 0 11 0 0 0 -8 0 0 0 0 0 0 0 0 0 0 0 0 0 0 0 0 0 0 0 0 8 0 0 0 0 0 0 0 0 0 0 0 0 0 0 0 0 0
8.9220 15.4766 22.3767 -179.6860 2.9604 177.3790 0.0000 0.0000 0.0000 -24.5691 -17.9567 4.1034 1.4208 7.5380 21.3194 1.0161 9.4911 -24.6972 2.6790 -10.1564 -29.4847 0.0000 0.0000 0.0000 26.1544 13.1239 6.4420 -0.8615 -5.9188 16.5489 0.4983 -19.9188 -23.9309 -0.0034 -0.3781 1.0389 0.8808 1.7791 8.4948 -0.0215 2.5350 -3.8395 -0.9244 1.1983 -8.8045 -4.4903 -1.1927 -9.1543 3.0656 -2.1865 18.8246 1.5143 -1.3755 7.3557 -0.0000 -0.0000 0.0000 -86.3226 14.7129 36.7430 20.9918 -31.8188 -6.0456 -0.0000 -0.0000 13.1904 7.0147 -33.7886 -3.9146 -7.1250 0.0000 -0.0000 -14.0168 -3.1208 15.2115 -0.0000 -0.0000 0.0000 85.3040 -15.2629 45.5866 -20.2848 30.9839 -5.6772 0.0000 0.0000 24.6348 -3.6852 -52.3361 2.9187 7.1250 -0.0000 -0.0000 68.7277 -72.4368 -50.7478
8.9210 15.4757 22.3774 -179.6810 3.0237 177.3770 0.0000 0.0000 0.0000 -24.5615 -17.9128 4.0538 1.4301 7.5616 21.3903 0.9976 9.5913 -24.6294 2.6538 -10.1124 -29.3415 0.0000 0.0000 0.0000 26.1557 13.1389 6.4306 -0.8549 -5.8965 16.4845 0.5608 -20.1394 -23.7038 -0.0001 0.0730 -0.2004 0.8973 1.7999 8.5282 -0.0295 2.5637 -3.8296 -0.9477 1.2106 -8.8117 -4.4943 -1.2196 -9.1625 3.0786 -2.2234 18.8111 1.5159 -1.3914 7.3545 0.0000 0.0000 0.0000 -86.2886 14.7679 36.7866 21.0323 -31.8661 -6.0670 -0.0000 -0.0000 13.2054 7.0072 -33.6625 -3.8976 -7.1250 0.0000 -0.0000 -14.0136 -2.9978 15.1790 0.0000 0.0000 0.0000 85.3621 -15.2161 45.4320 -20.2798 30.9780 -5.6747 0.0000 0.0000 24.6327 -3.5631 -52.3023 2.8207 7.1250 -0.0000 -0.0000 68.6949 -72.3817 -50.6541
8.9217 15.4750 22.3776 -179.6780 3.0988 177.3520 0.0000 0.0000 0.0000 -24.5497 -17.8020 4.0186 1.4363 7.5772 21.4371 0.9942 9.5970 -24.6067 2.5974 -10.0129 -29.0185 0.0000 0.0000 0.0000 26.1686 13.1929 6.4650 -0.8529 -5.8897 16.4648 0.5613 -20.1207 -23.6662 -0.0007 0.1688 -0.4638 0.8749 1.8266 8.5561 -0.0208 2.5960 -3.7997 -0.9314 1.2275 -8.7963 -4.5672 -1.2383 -9.1663 3.1604 -2.2489 18.7796 1.5525 -1.3999 7.3476 0.0000 0.0000 0.0000 -86.2639 14.7715 36.8611 21.0725 -31.9128 -6.0882 -0.0000 -0.0000 13.1274 6.8863 -33.4109 -3.8046 -7.1250 0.0000 -0.0000 -14.0655 -2.7396 15.1778 0.0000 0.0000 0.0000 85.3693 -15.2537 45.2755 -20.3655 31.0802 -5.7188 0.0000 0.0000 24.6764 -3.5709 -52.3576 2.8289 7.1250 -0.0000 -0.0000 68.8557 -72.4029 -50.8244
8.9222 15.4756 22.3776 -179.6900 3.1743 177.3720 0.0000 0.0000 0.0000 -24.5356 -17.6778 3.9267 1.4407 7.5884 21.4708 0.9882 9.6513 -24.6024 2.7728 -10.3178 -30.0122 0.0000 0.0000 0.0000 26.1356 13.2147 6.4258 -0.8543 -5.8944 16.4784 0.5297 -19.9588 -23.6943 -0.0000 0.0061 -0.0169 0.8516 1.8402 8.5446 -0.0207 2.6097 -3.7679 -0.9190 1.2355 -8.7558 -4.6438 -1.2422 -9.1938 3.2618 -2.2478 18.6962 1.5986 -1.3911 7.3271 0.0000 -0.0000 0.0000 -86.2693 14.7411 36.8317 21.1043 -31.9499 -6.1051 -0.0000 -0.0000 13.1469 6.9215 -33.3550 -3.8186 -7.1250 0.0000 -0.0000 -14.0431 -2.6898 15.1403 0.0000 -0.0000 0.0000 85.3552 -15.1875 45.2012 -20.4053 31.1276 -5.7394 0.0000 0.0000 24.7350 -3.4888 -52.6105 2.7732 7.1250 -0.0000 -0.0000 69.6603 -72.4560 -51.6178
8.9218 15.4752 22.3779 -179.6990 3.1456 177.3870 0.0000 0.0000 0.0000 -24.5225 -17.6353 3.8776 1.4403 7.5874 21.4676 0.9902 9.5871 -24.5661 2.8636 -10.4709 -30.5154 0.0000 0.0000 0.0000 26.1137 13.2007 6.3488 -0.8633 -5.9246 16.5659 0.5301 -19.9786 -23.7249 -0.0003 -0.1146 0.3149 0.8638 1.8157 8.5239 -0.0369 2.5750 -3.7314 -0.9357 1.2175 -8.7033 -4.6768 -1.2368 -9.1555 3.3406 -2.2338 18.5318 1.6316 -1.3737 7.2673 -0.0000 -0.0000 0.0000 -86.2826 14.7159 36.7221 21.0995 -31.9443 -6.1025 -0.0000 -0.0000 13.2913 6.8918 -33.4263 -3.8092 -7.1250 0.0000 -0.0000 -14.0634 -2.7552 15.1790 -0.0000 -0.0000 0.0000 85.3602 -15.0475 45.2250 -20.3700 31.0856 -5.7212 0.0000 0.0000 24.7688 -3.6848 -52.7783 2.9357 7.1250 -0.0000 -0.0000 70.0643 -72.5793 -52.1307
8.9207 15.4754 22.3790 -179.7240 3.0579 177.3760 0.0000 0.0000 0.0000 -24.5407 -17.6225 3.8748 1.4375 7.5803 21.4465 0.9965 9.4432 -24.4990 2.8163 -10.3915 -30.2540 0.0000 0.0000 0.0000 26.0871 13.1626 6.3142 -0.8762 -5.9677 16.6906 0.4976 -19.9184 -23.9366 -0.0017 -0.2683 0.7371 0.8407 1.7741 8.5614 -0.0429 2.5151 -3.7135 -0.9207 1.1891 -8.7075 -4.6406 -1.2345 -9.1245 3.2950 -2.2172 18.4210 1.6125 -1.3632 7.2242 -0.0000 0.0000 0.0000 -86.2971 14.7205 36.6653 21.1123 -31.9591 -6.1092 -0.0000 -0.0000 13.2644 6.5881 -33.4565 -3.6432 -7.1250 0.0000 -0.0000 -14.2311 -2.7480 15.3699 -0.0000 0.0000 0.0000 85.3480 -15.0215 45.2198 -20.3794 31.0967 -5.7260 0.0000 0.0000 24.8224 -3.7847 -52.8905 3.0198 7.1250 -0.0000 -0.0000 70.3554 -72.6498 -52.4797
